<?xml version="1.0" encoding="UTF-8"?><svg id="_圖層_1" xmlns="http://www.w3.org/2000/svg" viewBox="0 0 496.97 94.62"><defs><style>.cls-1{fill:#9e9e9f;}.cls-2{fill:#433f3f;}</style></defs><path class="cls-1" d="M32.74,27.63c-9.9-2.22-19.02-5.55-27.17-9.92L0,14.72v17.2l2.13,1.04c11.16,5.44,23.63,9.24,37.05,11.29l8.72,1.33V0h-15.15v27.63Z"/><path class="cls-1" d="M100.91,18.68c-8.24,4.18-17.38,7.33-27.24,9.38V0h-15.15v45.74l8.61-1.18c13.36-1.84,25.84-5.42,37.09-10.64l2.19-1.02V15.89l-5.5,2.79Z"/><path class="cls-1" d="M2.13,61.66l-2.13,1.04v17.2l5.58-2.99c8.15-4.37,17.27-7.7,27.17-9.92v27.63h15.15v-45.57l-8.72,1.33c-13.42,2.04-25.89,5.84-37.05,11.29Z"/><path class="cls-1" d="M67.13,50.07l-8.61-1.18v45.74h15.15v-28.06c9.86,2.05,19,5.19,27.24,9.38l5.5,2.79v-17.01l-2.19-1.02c-11.26-5.22-23.74-8.8-37.09-10.64Z"/><polygon class="cls-2" points="138.62 67.49 146.59 67.49 146.59 88.1 148.99 88.1 148.99 67.49 156.96 67.49 156.96 65.42 138.62 65.42 138.62 67.49"/><path class="cls-2" d="M172.82,72.56c-1.2-1.09-2.9-1.64-5.1-1.64-1.34,0-2.61.2-3.82.6-1.21.4-2.25.97-3.11,1.7l1.04,1.72c.69-.6,1.53-1.09,2.53-1.46.99-.37,2.04-.55,3.14-.55,1.6,0,2.8.39,3.61,1.17.81.78,1.21,1.89,1.21,3.34v1.04h-5.41c-1.62,0-2.91.22-3.87.66-.96.44-1.65,1.03-2.07,1.75-.42.72-.63,1.53-.63,2.41,0,.97.25,1.83.75,2.58.5.75,1.22,1.33,2.15,1.75.94.42,2.05.63,3.32.63,1.62,0,2.97-.33,4.03-1,.78-.49,1.39-1.1,1.83-1.83v2.67h2.2v-10.56c0-2.23-.6-3.88-1.8-4.97ZM170.26,85.56c-.94.59-2.06.89-3.35.89-1.36,0-2.42-.29-3.18-.88-.76-.58-1.13-1.36-1.13-2.33,0-.86.32-1.59.96-2.17.64-.58,1.78-.87,3.42-.87h5.35v2.79c-.43,1.12-1.12,1.98-2.06,2.58Z"/><path class="cls-2" d="M183.5,64.06c-.48,0-.88.16-1.2.47-.32.31-.49.7-.49,1.15s.16.84.49,1.17c.32.32.72.49,1.2.49s.9-.16,1.22-.49c.31-.32.47-.72.47-1.2s-.16-.83-.49-1.13c-.32-.3-.72-.45-1.2-.45Z"/><rect class="cls-2" x="182.33" y="71.09" width="2.3" height="17.01"/><path class="cls-2" d="M205.65,72.01c-1.29-.72-2.74-1.09-4.36-1.09-1.49,0-2.83.34-4.02,1-1.05.59-1.9,1.42-2.56,2.49v-3.33h-2.2v23.3h2.3v-9.53c.66,1.01,1.49,1.81,2.5,2.38,1.19.68,2.52,1.02,3.99,1.02,1.62,0,3.07-.37,4.36-1.1,1.29-.73,2.3-1.75,3.03-3.05.73-1.3,1.1-2.81,1.1-4.54s-.37-3.21-1.1-4.52c-.73-1.31-1.74-2.32-3.03-3.05ZM206.64,83.06c-.56,1-1.32,1.78-2.27,2.33-.95.55-2.03.83-3.24.83s-2.3-.28-3.26-.83c-.96-.55-1.72-1.33-2.27-2.33-.55-1-.83-2.17-.83-3.48s.28-2.47.83-3.47c.55-.99,1.31-1.77,2.27-2.33.96-.56,2.05-.84,3.26-.84s2.29.28,3.24.84c.95.56,1.71,1.34,2.27,2.33.56.99.84,2.15.84,3.47s-.28,2.48-.84,3.48Z"/><path class="cls-2" d="M226.81,72.01c-1.24-.72-2.66-1.09-4.26-1.09s-3,.37-4.26,1.12c-1.26.75-2.26,1.77-2.98,3.06-.72,1.3-1.09,2.79-1.09,4.47s.38,3.18,1.13,4.49c.76,1.31,1.8,2.33,3.14,3.08,1.34.75,2.89,1.12,4.67,1.12,1.36,0,2.61-.24,3.74-.71,1.13-.47,2.08-1.17,2.84-2.07l-1.3-1.49c-.65.76-1.42,1.32-2.32,1.69-.9.37-1.86.55-2.9.55-1.32,0-2.49-.28-3.52-.83-1.03-.55-1.83-1.32-2.4-2.3-.48-.82-.76-1.76-.83-2.8h14.3c0-.13,0-.25.02-.37.01-.12.02-.23.02-.34,0-1.71-.36-3.21-1.07-4.52-.71-1.31-1.69-2.32-2.93-3.05ZM217.23,75.98c.52-.97,1.24-1.73,2.17-2.27.93-.54,1.98-.81,3.14-.81s2.24.27,3.14.81c.91.54,1.63,1.29,2.15,2.25.43.78.68,1.65.76,2.61h-12.12c.08-.95.33-1.82.74-2.59Z"/><rect class="cls-2" x="236.97" y="71.09" width="2.3" height="17.01"/><path class="cls-2" d="M238.14,64.06c-.48,0-.88.16-1.2.47-.32.31-.49.7-.49,1.15s.16.84.49,1.17.72.49,1.2.49.9-.16,1.22-.49c.31-.32.47-.72.47-1.2s-.16-.83-.49-1.13c-.32-.3-.72-.45-1.2-.45Z"/><path class="cls-2" d="M271.03,66.34c-1.38-.62-3.04-.92-4.96-.92h-8.49v22.68h2.4v-7.16h6.09c1.92,0,3.58-.31,4.96-.94,1.38-.63,2.45-1.52,3.19-2.67.75-1.16,1.12-2.53,1.12-4.13s-.37-3.04-1.12-4.2c-.75-1.16-1.81-2.04-3.19-2.66ZM271.17,77.36c-1.18.98-2.9,1.47-5.17,1.47h-6.03v-11.34h6.03c2.27,0,3.99.5,5.17,1.49,1.18.99,1.77,2.4,1.77,4.21s-.59,3.18-1.77,4.16Z"/><path class="cls-2" d="M294.88,80c0,1.3-.23,2.41-.7,3.34-.46.93-1.13,1.64-2.01,2.12-.87.49-1.91.73-3.09.73-1.62,0-2.88-.46-3.78-1.38-.9-.92-1.34-2.28-1.34-4.1v-9.62h-2.3v9.88c0,1.62.3,2.97.89,4.05.59,1.08,1.43,1.89,2.51,2.43,1.08.54,2.34.81,3.79.81s2.84-.35,3.97-1.05c.91-.56,1.63-1.31,2.15-2.23v3.12h2.2v-17.01h-2.3v8.91Z"/><path class="cls-2" d="M318.19,72.01c-1.29-.72-2.74-1.09-4.36-1.09-1.47,0-2.8.34-3.99,1-1.01.57-1.84,1.36-2.5,2.37v-10.24h-2.3v24.05h2.2v-3.37c.66,1.08,1.51,1.91,2.56,2.51,1.19.68,2.53,1.02,4.02,1.02,1.62,0,3.07-.37,4.36-1.1,1.29-.73,2.3-1.76,3.03-3.06.73-1.31,1.1-2.81,1.1-4.52s-.37-3.24-1.1-4.54c-.73-1.3-1.74-2.31-3.03-3.03ZM319.18,83.06c-.56,1-1.32,1.78-2.27,2.33-.95.55-2.03.83-3.24.83s-2.3-.28-3.26-.83c-.96-.55-1.72-1.33-2.27-2.33-.55-1-.83-2.17-.83-3.48s.28-2.51.83-3.5c.55-.99,1.31-1.77,2.27-2.32.96-.55,2.05-.83,3.26-.83s2.29.28,3.24.83c.95.55,1.71,1.32,2.27,2.32.56.99.84,2.16.84,3.5s-.28,2.48-.84,3.48Z"/><rect class="cls-2" x="328.48" y="64.06" width="2.3" height="24.05"/><path class="cls-2" d="M339.82,64.06c-.48,0-.87.16-1.2.47-.32.31-.49.7-.49,1.15s.16.84.49,1.17c.32.32.72.49,1.2.49s.9-.16,1.22-.49c.31-.32.47-.72.47-1.2s-.16-.83-.49-1.13c-.32-.3-.72-.45-1.2-.45Z"/><rect class="cls-2" x="338.66" y="71.09" width="2.3" height="17.01"/><path class="cls-2" d="M352.59,73.76c.97-.55,2.06-.83,3.27-.83,1.02,0,1.95.21,2.82.62.86.41,1.59,1.05,2.17,1.91l1.72-1.17c-.67-1.12-1.59-1.97-2.75-2.53-1.17-.56-2.47-.84-3.92-.84-1.69,0-3.19.37-4.52,1.1-1.33.73-2.37,1.75-3.13,3.05-.76,1.3-1.13,2.8-1.13,4.5s.38,3.18,1.13,4.49c.76,1.31,1.8,2.33,3.13,3.08,1.33.75,2.84,1.12,4.52,1.12,1.45,0,2.75-.29,3.92-.86,1.17-.57,2.08-1.41,2.75-2.51l-1.72-1.17c-.58.84-1.31,1.47-2.17,1.88-.86.41-1.8.62-2.82.62-1.21,0-2.3-.28-3.27-.83-.97-.55-1.74-1.32-2.3-2.32-.56-.99-.84-2.16-.84-3.5s.28-2.51.84-3.5c.56-.99,1.33-1.77,2.3-2.32Z"/><polygon class="cls-2" points="381.37 65.42 378.97 65.42 378.97 88.1 394.07 88.1 394.07 86.03 381.37 86.03 381.37 65.42"/><path class="cls-2" d="M400.2,64.06c-.48,0-.87.16-1.2.47-.32.31-.49.7-.49,1.15s.16.84.49,1.17c.32.32.72.49,1.2.49s.9-.16,1.22-.49c.31-.32.47-.72.47-1.2s-.16-.83-.49-1.13c-.32-.3-.72-.45-1.2-.45Z"/><rect class="cls-2" x="399.03" y="71.09" width="2.3" height="17.01"/><path class="cls-2" d="M422.35,72.01c-1.29-.72-2.74-1.09-4.36-1.09-1.47,0-2.8.34-3.99,1-1.01.57-1.84,1.36-2.5,2.37v-10.24h-2.3v24.05h2.2v-3.37c.66,1.08,1.51,1.91,2.56,2.51,1.19.68,2.53,1.02,4.02,1.02,1.62,0,3.07-.37,4.36-1.1,1.29-.73,2.3-1.76,3.03-3.06.73-1.31,1.1-2.81,1.1-4.52s-.37-3.24-1.1-4.54c-.73-1.3-1.74-2.31-3.03-3.03ZM423.33,83.06c-.56,1-1.32,1.78-2.27,2.33-.95.55-2.03.83-3.24.83s-2.3-.28-3.26-.83c-.96-.55-1.72-1.33-2.27-2.33-.55-1-.83-2.17-.83-3.48s.28-2.51.83-3.5c.55-.99,1.31-1.77,2.27-2.32.96-.55,2.05-.83,3.26-.83s2.29.28,3.24.83c.95.55,1.71,1.32,2.27,2.32.56.99.84,2.16.84,3.5s-.28,2.48-.84,3.48Z"/><path class="cls-2" d="M434.84,74.37v-3.29h-2.2v17.01h2.3v-8.68c0-2.01.51-3.56,1.52-4.65,1.02-1.09,2.42-1.64,4.21-1.64.09,0,.17,0,.26.02.09.01.17.02.26.02v-2.24c-1.66,0-3.06.34-4.18,1.02-.96.58-1.68,1.39-2.17,2.43Z"/><path class="cls-2" d="M458.15,72.56c-1.2-1.09-2.9-1.64-5.1-1.64-1.34,0-2.61.2-3.82.6-1.21.4-2.25.97-3.11,1.7l1.04,1.72c.69-.6,1.53-1.09,2.53-1.46.99-.37,2.04-.55,3.14-.55,1.6,0,2.8.39,3.61,1.17.81.78,1.22,1.89,1.22,3.34v1.04h-5.41c-1.62,0-2.91.22-3.87.66-.96.44-1.65,1.03-2.07,1.75-.42.72-.63,1.53-.63,2.41,0,.97.25,1.83.75,2.58.5.75,1.22,1.33,2.16,1.75.94.42,2.05.63,3.32.63,1.62,0,2.97-.33,4.03-1,.78-.49,1.39-1.1,1.83-1.83v2.67h2.2v-10.56c0-2.23-.6-3.88-1.8-4.97ZM455.59,85.56c-.94.59-2.06.89-3.35.89-1.36,0-2.42-.29-3.18-.88-.76-.58-1.13-1.36-1.13-2.33,0-.86.32-1.59.96-2.17.64-.58,1.78-.87,3.42-.87h5.35v2.79c-.43,1.12-1.12,1.98-2.06,2.58Z"/><path class="cls-2" d="M469.87,74.37v-3.29h-2.2v17.01h2.3v-8.68c0-2.01.51-3.56,1.52-4.65,1.02-1.09,2.42-1.64,4.21-1.64.09,0,.17,0,.26.02.09.01.17.02.26.02v-2.24c-1.66,0-3.06.34-4.18,1.02-.96.58-1.68,1.39-2.17,2.43Z"/><path class="cls-2" d="M494.17,71.09l-6.41,14.46-6.42-14.46h-2.4l7.6,16.97-.73,1.66c-.5,1.06-1.02,1.8-1.57,2.22-.55.42-1.2.63-1.96.63-.63,0-1.19-.11-1.7-.34-.51-.23-.98-.55-1.41-.96l-1.07,1.72c.52.52,1.14.91,1.86,1.17.72.26,1.49.39,2.28.39s1.57-.14,2.24-.41c.67-.27,1.29-.73,1.86-1.38.57-.65,1.1-1.52,1.57-2.62l8.52-19.05h-2.27Z"/><path class="cls-2" d="M285.54,8.01h-19.66V3.88c0-.63-.51-1.15-1.15-1.15s-1.15.51-1.15,1.15v4.14h-19.66c-.63,0-1.15.51-1.15,1.15s.51,1.15,1.15,1.15h19.66v7.77h-15.82c-.63,0-1.15.51-1.15,1.15v21.53c0,.63.51,1.15,1.15,1.15s1.15-.51,1.15-1.15v-20.38h14.67v27.99c0,.63.51,1.15,1.15,1.15s1.15-.51,1.15-1.15v-27.99h15.18v20.38c0,.63.51,1.15,1.15,1.15s1.15-.51,1.15-1.15v-21.53c0-.63-.51-1.15-1.15-1.15h-16.33v-7.77h19.66c.63,0,1.15-.51,1.15-1.15s-.51-1.15-1.15-1.15Z"/><path class="cls-2" d="M390.32,4.45h-41.62c-.63,0-1.15.51-1.15,1.15v42.77c0,.63.51,1.15,1.15,1.15h41.62c.63,0,1.15-.51,1.15-1.15V5.6c0-.63-.51-1.15-1.15-1.15ZM389.17,47.22h-39.33V6.75h39.33v40.48Z"/><path class="cls-2" d="M356.59,22.71h25.84c.63,0,1.15-.51,1.15-1.15s-.51-1.15-1.15-1.15h-11.77v-2.84h8.9c.63,0,1.15-.51,1.15-1.15v-5.42c0-.63-.51-1.15-1.15-1.15h-20.09c-.63,0-1.15.51-1.15,1.15v5.42c0,.63.51,1.15,1.15,1.15h8.9v2.84h-11.77c-.63,0-1.15.51-1.15,1.15s.51,1.15,1.15,1.15ZM360.61,12.16h17.8v3.12h-17.8v-3.12Z"/><path class="cls-2" d="M356.59,44.1h25.84c.63,0,1.15-.51,1.15-1.15v-16.25c0-.63-.51-1.15-1.15-1.15h-25.84c-.63,0-1.15.51-1.15,1.15v16.25c0,.63.51,1.15,1.15,1.15ZM357.74,27.85h23.54v13.96h-23.54v-13.96Z"/><path class="cls-2" d="M375.25,30.97h-11.48c-.63,0-1.15.51-1.15,1.15v5.42c0,.63.51,1.15,1.15,1.15h11.48c.63,0,1.15-.51,1.15-1.15v-5.42c0-.63-.51-1.15-1.15-1.15ZM374.1,36.39h-9.19v-3.12h9.19v3.12Z"/><path class="cls-2" d="M469.62,4.17h-12.1c-.63,0-1.15.51-1.15,1.15v2.82c0,.42.01.84.02,1.25.05,1.88.09,3.65-.86,4.62-.73.75-2.15,1.13-4.21,1.13-.63,0-1.15.51-1.15,1.15s.51,1.15,1.15,1.15c2.74,0,4.65-.6,5.85-1.83,1.05-1.07,1.4-2.43,1.5-3.86h9.8v3.41c0,.63.51,1.15,1.15,1.15s1.15-.51,1.15-1.15V5.32c0-.63-.51-1.15-1.15-1.15ZM458.69,9.45s0-.08,0-.12c0-.39-.02-.8-.02-1.19v-1.68h9.8v2.99h-9.78Z"/><path class="cls-2" d="M469.62,18.06h-12.27c-.63,0-1.15.51-1.15,1.15v29.17c0,.63.51,1.15,1.15,1.15h12.27c.63,0,1.15-.51,1.15-1.15v-6.24c0-.63-.51-1.15-1.15-1.15s-1.15.51-1.15,1.15v5.09h-9.98v-10.31h11.13c.63,0,1.15-.51,1.15-1.15v-16.56c0-.63-.51-1.15-1.15-1.15ZM468.47,20.35v5.98h-9.98v-5.98h9.98ZM458.49,34.61v-5.98h9.98v5.98h-9.98Z"/><path class="cls-2" d="M495.82,33.61h-15.97v-6.04h13.09c.63,0,1.15-.51,1.15-1.15v-10.05c0-.63-.51-1.15-1.15-1.15h-14.24c-.63,0-1.15.51-1.15,1.15v32c0,.63.51,1.15,1.15,1.15h17.12c.63,0,1.15-.51,1.15-1.15v-13.61c0-.63-.51-1.15-1.15-1.15ZM479.85,17.52h11.94v7.76h-11.94v-7.76ZM494.67,47.22h-14.82v-11.31h14.82v11.31Z"/><path class="cls-2" d="M495.82,5.42h-8.85v-1.54c0-.63-.51-1.15-1.15-1.15s-1.15.51-1.15,1.15v1.54h-8.85c-.63,0-1.15.51-1.15,1.15v5.72c0,.63.51,1.15,1.15,1.15s1.15-.51,1.15-1.15v-4.57h17.7v4.57c0,.63.51,1.15,1.15,1.15s1.15-.51,1.15-1.15v-5.72c0-.63-.51-1.15-1.15-1.15Z"/><path class="cls-2" d="M180.77,26.41h-41.62c-.63,0-1.15.51-1.15,1.15v6.82c0,.63.51,1.15,1.15,1.15s1.15-.51,1.15-1.15v-5.67h39.33v5.67c0,.63.51,1.15,1.15,1.15s1.15-.51,1.15-1.15v-6.82c0-.63-.51-1.15-1.15-1.15Z"/><path class="cls-2" d="M174.31,15.94h-28.71c-.63,0-1.15.51-1.15,1.15v5.33c0,.63.51,1.15,1.15,1.15h28.71c.63,0,1.15-.51,1.15-1.15v-5.33c0-.63-.51-1.15-1.15-1.15ZM173.16,21.28h-26.41v-3.04h26.41v3.04Z"/><path class="cls-2" d="M142.01,7.9h16.79v2.91h-13.2c-.63,0-1.15.51-1.15,1.15s.51,1.15,1.15,1.15h28.71c.63,0,1.15-.51,1.15-1.15s-.51-1.15-1.15-1.15h-13.2v-2.91h16.79c.63,0,1.15-.51,1.15-1.15s-.51-1.15-1.15-1.15h-16.79v-.62c0-.63-.51-1.15-1.15-1.15s-1.15.51-1.15,1.15v.62h-16.79c-.63,0-1.15.51-1.15,1.15s.51,1.15,1.15,1.15Z"/><path class="cls-2" d="M180.77,47.22h-19.66v-3.04h13.2c.63,0,1.15-.51,1.15-1.15s-.51-1.15-1.15-1.15h-13.2v-2.65c0-.14-.02-.26-.07-.39h13.27c.63,0,1.15-.51,1.15-1.15s-.51-1.15-1.15-1.15h-27.56v-3.04h27.56c.63,0,1.15-.51,1.15-1.15s-.51-1.15-1.15-1.15h-28.71c-.63,0-1.15.51-1.15,1.15v5.34c0,.63.51,1.15,1.15,1.15h13.27c-.04.12-.07.25-.07.39v2.65h-13.2c-.63,0-1.15.51-1.15,1.15s.51,1.15,1.15,1.15h13.2v3.04h-19.66c-.63,0-1.15.51-1.15,1.15s.51,1.15,1.15,1.15h41.62c.63,0,1.15-.51,1.15-1.15s-.51-1.15-1.15-1.15Z"/><path class="cls-2" d="M438.4,35.28h-31.58c-.63,0-1.15.51-1.15,1.15v11.94c0,.63.51,1.15,1.15,1.15h31.58c.63,0,1.15-.51,1.15-1.15v-11.94c0-.63-.51-1.15-1.15-1.15ZM437.26,37.57v3.68h-29.28v-3.68h29.28ZM407.98,47.22v-3.68h29.28v3.68h-29.28Z"/><path class="cls-2" d="M438.4,19.66c.63,0,1.15-.51,1.15-1.15v-4.82h3.88c.63,0,1.15-.51,1.15-1.15s-.51-1.15-1.15-1.15h-3.88v-4.82c0-.63-.51-1.15-1.15-1.15h-14.64v-1.54c0-.63-.51-1.15-1.15-1.15s-1.15.51-1.15,1.15v1.54h-14.64c-.63,0-1.15.51-1.15,1.15s.51,1.15,1.15,1.15h14.64v3.68h-19.66c-.63,0-1.15.51-1.15,1.15s.51,1.15,1.15,1.15h19.66v3.68h-14.64c-.63,0-1.15.51-1.15,1.15s.51,1.15,1.15,1.15h14.64v3.68h-14.64c-.63,0-1.15.51-1.15,1.15s.51,1.15,1.15,1.15h14.64v3.68h-19.66c-.63,0-1.15.51-1.15,1.15s.51,1.15,1.15,1.15h41.62c.63,0,1.15-.51,1.15-1.15s-.51-1.15-1.15-1.15h-19.66v-3.68h14.64c.63,0,1.15-.51,1.15-1.15s-.51-1.15-1.15-1.15h-14.64v-3.68h14.64ZM423.76,7.71h13.49v3.68h-13.49v-3.68ZM423.76,13.68h13.49v3.68h-13.49v-3.68Z"/><path class="cls-2" d="M337.22,8.01h-19.66V3.88c0-.63-.51-1.15-1.15-1.15s-1.15.51-1.15,1.15v4.14h-19.66c-.63,0-1.15.51-1.15,1.15s.51,1.15,1.15,1.15h41.62c.63,0,1.15-.51,1.15-1.15s-.51-1.15-1.15-1.15Z"/><path class="cls-2" d="M337.22,46.65h-13.15c1.04-.86,1.94-1.94,2.68-3.26,2.06-3.64,2.28-7.84,2.28-9.47v-17.33c0-.63-.51-1.15-1.15-1.15s-1.15.51-1.15,1.15v17.33c0,1.45-.19,5.17-1.98,8.34-1.65,2.91-4.14,4.39-7.41,4.39,0,0,0,0-.01,0h-1.84s0,0-.01,0c-3.28,0-5.77-1.48-7.41-4.39-1.79-3.17-1.98-6.89-1.98-8.34v-17.33c0-.63-.51-1.15-1.15-1.15s-1.15.51-1.15,1.15v17.33c0,1.63.22,5.83,2.28,9.47.74,1.31,1.64,2.4,2.68,3.26h-13.15c-.63,0-1.15.51-1.15,1.15s.51,1.15,1.15,1.15h41.62c.63,0,1.15-.51,1.15-1.15s-.51-1.15-1.15-1.15Z"/><path class="cls-2" d="M233.87,47.07h-15.57v-24.59c5.72-.91,11.12-2.55,16.06-4.87.57-.27.82-.95.55-1.53-.27-.57-.95-.82-1.53-.55-4.64,2.18-9.71,3.73-15.09,4.62V5.02c0-.63-.51-1.15-1.15-1.15s-1.15.51-1.15,1.15v43.19c0,.63.51,1.15,1.15,1.15h16.72c.63,0,1.15-.51,1.15-1.15s-.51-1.15-1.15-1.15Z"/><path class="cls-2" d="M208.97,3.88c-.63,0-1.15.51-1.15,1.15v15.13c-5.37-.89-10.44-2.44-15.09-4.62-.57-.27-1.26-.02-1.53.55-.27.57-.02,1.26.55,1.53,4.94,2.32,10.34,3.96,16.06,4.87v24.74h-15.57c-.63,0-1.15.51-1.15,1.15s.51,1.15,1.15,1.15h16.72c.63,0,1.15-.51,1.15-1.15V5.02c0-.63-.51-1.15-1.15-1.15Z"/></svg>